<svg width="138" height="88" viewBox="0 0 138 88" fill="none" xmlns="http://www.w3.org/2000/svg">
<g filter="url(#filter0_d_6_61)">
<rect x="4" width="130" height="80" rx="3" fill="white"/>
</g>
<rect x="14" y="6" width="46" height="5" rx="2.5" fill="#D9D9D9"/>
<rect x="14" y="14" width="81" height="2" rx="1" fill="#D9D9D9"/>
<rect x="15" y="24" width="20" height="1" fill="#D9D9D9"/>
<rect x="15" y="27" width="12" height="1" fill="#D9D9D9"/>
<rect x="49" y="24" width="20" height="1" fill="#D9D9D9"/>
<rect x="49" y="27" width="12" height="1" fill="#D9D9D9"/>
<rect x="81" y="24" width="20" height="1" fill="#D9D9D9"/>
<rect x="81" y="27" width="12" height="1" fill="#D9D9D9"/>
<path d="M4 41.5L23 59H33L37.5 53.5L46 64.5L57.5 68.5H67L73 64.5L84 68.5L91.5 64.5L97 59L104 53.5H113L116.5 55.5L120 62H127.5L131 53.5L134 50.5" stroke="#A2A2A2" stroke-linecap="round"/>
<defs>
<filter id="filter0_d_6_61" x="0" y="0" width="138" height="88" filterUnits="userSpaceOnUse" color-interpolation-filters="sRGB">
<feFlood flood-opacity="0" result="BackgroundImageFix"/>
<feColorMatrix in="SourceAlpha" type="matrix" values="0 0 0 0 0 0 0 0 0 0 0 0 0 0 0 0 0 0 127 0" result="hardAlpha"/>
<feOffset dy="4"/>
<feGaussianBlur stdDeviation="2"/>
<feComposite in2="hardAlpha" operator="out"/>
<feColorMatrix type="matrix" values="0 0 0 0 0 0 0 0 0 0 0 0 0 0 0 0 0 0 0.25 0"/>
<feBlend mode="normal" in2="BackgroundImageFix" result="effect1_dropShadow_6_61"/>
<feBlend mode="normal" in="SourceGraphic" in2="effect1_dropShadow_6_61" result="shape"/>
</filter>
</defs>
</svg>
