<svg width="138" height="88" viewBox="0 0 138 88" fill="none" xmlns="http://www.w3.org/2000/svg">
<g filter="url(#filter0_d_6_70)">
<rect x="4" width="130" height="80" rx="3" fill="white"/>
</g>
<rect x="14" y="6" width="46" height="5" rx="2.5" fill="#D9D9D9"/>
<rect x="14" y="14" width="81" height="2" rx="1" fill="#D9D9D9"/>
<rect x="15" y="24" width="20" height="1" fill="#D9D9D9"/>
<rect x="15" y="27" width="12" height="1" fill="#D9D9D9"/>
<rect x="49" y="24" width="20" height="1" fill="#D9D9D9"/>
<rect x="49" y="27" width="12" height="1" fill="#D9D9D9"/>
<rect x="81" y="24" width="20" height="1" fill="#D9D9D9"/>
<rect x="81" y="27" width="12" height="1" fill="#D9D9D9"/>
<path d="M4 64L12.5 57.5L14.5 52L18 46L20.5 68.5L24.5 66L27 68.5L34 72.5L42.5 68.5L47.5 64L53 57.5L60.5 55L66 52H72L74 55H80.5L87 52L92.5 57.5L97 60.5L101.5 57.5L107 55L111.5 52H116.5L120.5 46L123 44H125.5L128 49L132 44L134 40" stroke="#A2A2A2" stroke-width="1.1" stroke-linecap="round"/>
<defs>
<filter id="filter0_d_6_70" x="0" y="0" width="138" height="88" filterUnits="userSpaceOnUse" color-interpolation-filters="sRGB">
<feFlood flood-opacity="0" result="BackgroundImageFix"/>
<feColorMatrix in="SourceAlpha" type="matrix" values="0 0 0 0 0 0 0 0 0 0 0 0 0 0 0 0 0 0 127 0" result="hardAlpha"/>
<feOffset dy="4"/>
<feGaussianBlur stdDeviation="2"/>
<feComposite in2="hardAlpha" operator="out"/>
<feColorMatrix type="matrix" values="0 0 0 0 0 0 0 0 0 0 0 0 0 0 0 0 0 0 0.25 0"/>
<feBlend mode="normal" in2="BackgroundImageFix" result="effect1_dropShadow_6_70"/>
<feBlend mode="normal" in="SourceGraphic" in2="effect1_dropShadow_6_70" result="shape"/>
</filter>
</defs>
</svg>
